<svg xmlns="http://www.w3.org/2000/svg" width="1920" height="1080" viewBox="0 0 1000 562.5"><defs><linearGradient id="sky" x2="0" y2="1"><stop stop-color="#0d2c3b"/><stop offset="1" stop-color="#b59969"/></linearGradient><linearGradient id="sea" x2="0" y2="1"><stop stop-color="#36636a"/><stop offset="1" stop-color="#092937"/></linearGradient></defs><rect width="1000" height="562.5" fill="url(#sky)"/><circle cx="740" cy="202.5" r="42" fill="#e7ce8e" opacity=".85"/><path d="M0 270L110 163.125 184 213.75 263 151.875 415 258.75 533 180 678 247.5 810 140.625 1000 236.25V562.5H0Z" fill="#24494b"/><path d="M0 281.25L80 225 180 275.625 255 247.5 366 298.125 455 236.25 620 286.875 830 225 1000 281.25V562.5H0Z" fill="#173d40"/><rect y="315.00000000000006" width="1000" height="247.5" fill="url(#sea)"/><path d="M0 331.875h15" stroke="#bad0b6" stroke-width="1.4" opacity="0.09"/><path d="M179 362.875h38" stroke="#bad0b6" stroke-width="1.4" opacity="0.135"/><path d="M358 393.875h61" stroke="#bad0b6" stroke-width="1.4" opacity="0.18"/><path d="M537 424.875h17" stroke="#bad0b6" stroke-width="1.4" opacity="0.09"/><path d="M716 455.875h40" stroke="#bad0b6" stroke-width="1.4" opacity="0.135"/><path d="M895 486.875h63" stroke="#bad0b6" stroke-width="1.4" opacity="0.18"/><path d="M54 517.875h19" stroke="#bad0b6" stroke-width="1.4" opacity="0.09"/><path d="M233 548.875h42" stroke="#bad0b6" stroke-width="1.4" opacity="0.135"/><path d="M412 354.875h65" stroke="#bad0b6" stroke-width="1.4" opacity="0.18"/><path d="M591 385.875h21" stroke="#bad0b6" stroke-width="1.4" opacity="0.09"/><path d="M770 416.875h44" stroke="#bad0b6" stroke-width="1.4" opacity="0.135"/><path d="M949 447.875h67" stroke="#bad0b6" stroke-width="1.4" opacity="0.18"/><path d="M108 478.875h23" stroke="#bad0b6" stroke-width="1.4" opacity="0.09"/><path d="M287 509.875h46" stroke="#bad0b6" stroke-width="1.4" opacity="0.135"/><path d="M466 540.875h69" stroke="#bad0b6" stroke-width="1.4" opacity="0.18"/><path d="M645 346.875h25" stroke="#bad0b6" stroke-width="1.4" opacity="0.09"/><path d="M824 377.875h48" stroke="#bad0b6" stroke-width="1.4" opacity="0.135"/><path d="M1003 408.875h71" stroke="#bad0b6" stroke-width="1.4" opacity="0.18"/><path d="M162 439.875h27" stroke="#bad0b6" stroke-width="1.4" opacity="0.09"/><path d="M341 470.875h50" stroke="#bad0b6" stroke-width="1.4" opacity="0.135"/><path d="M520 501.875h73" stroke="#bad0b6" stroke-width="1.4" opacity="0.18"/><path d="M699 532.875h29" stroke="#bad0b6" stroke-width="1.4" opacity="0.09"/><path d="M878 338.875h52" stroke="#bad0b6" stroke-width="1.4" opacity="0.135"/><path d="M37 369.875h75" stroke="#bad0b6" stroke-width="1.4" opacity="0.18"/><path d="M216 400.875h31" stroke="#bad0b6" stroke-width="1.4" opacity="0.09"/><path d="M395 431.875h54" stroke="#bad0b6" stroke-width="1.4" opacity="0.135"/><path d="M574 462.875h77" stroke="#bad0b6" stroke-width="1.4" opacity="0.18"/><path d="M753 493.875h33" stroke="#bad0b6" stroke-width="1.4" opacity="0.09"/><path d="M932 524.875h56" stroke="#bad0b6" stroke-width="1.4" opacity="0.135"/><path d="M91 555.875h79" stroke="#bad0b6" stroke-width="1.4" opacity="0.18"/><path d="M270 361.875h35" stroke="#bad0b6" stroke-width="1.4" opacity="0.09"/><path d="M449 392.875h58" stroke="#bad0b6" stroke-width="1.4" opacity="0.135"/><path d="M628 423.875h81" stroke="#bad0b6" stroke-width="1.4" opacity="0.18"/><path d="M807 454.875h37" stroke="#bad0b6" stroke-width="1.4" opacity="0.09"/><path d="M986 485.875h60" stroke="#bad0b6" stroke-width="1.4" opacity="0.135"/><path d="M145 516.875h16" stroke="#bad0b6" stroke-width="1.4" opacity="0.18"/><path d="M324 547.875h39" stroke="#bad0b6" stroke-width="1.4" opacity="0.09"/><path d="M503 353.875h62" stroke="#bad0b6" stroke-width="1.4" opacity="0.135"/><path d="M682 384.875h18" stroke="#bad0b6" stroke-width="1.4" opacity="0.18"/><path d="M861 415.875h41" stroke="#bad0b6" stroke-width="1.4" opacity="0.09"/><path d="M20 446.875h64" stroke="#bad0b6" stroke-width="1.4" opacity="0.135"/><path d="M199 477.875h20" stroke="#bad0b6" stroke-width="1.4" opacity="0.18"/><path d="M378 508.875h43" stroke="#bad0b6" stroke-width="1.4" opacity="0.09"/><path d="M557 539.875h66" stroke="#bad0b6" stroke-width="1.4" opacity="0.135"/><path d="M736 345.875h22" stroke="#bad0b6" stroke-width="1.4" opacity="0.18"/><g transform="translate(650 354.375) scale(0.85)"><path d="M-140 32H150L115 67H-100Z" fill="#dddac1" stroke="#0c2732" stroke-width="3"/><path d="M-139 34H145" stroke="#cd994d" stroke-width="5"/><path d="M25-26H90V31H8Z" fill="#c4d5c6"/><path d="M32-19H83V7H23Z" fill="#183f4b"/><path d="M58-27V-91M58-83L84-76 58-64" fill="#d6dfc9" stroke="#d6dfc9" stroke-width="3"/><g fill="#d08b42" stroke="#edc985"><ellipse cx="-94" cy="24" rx="17" ry="11"/><ellipse cx="-55" cy="24" rx="17" ry="11"/><ellipse cx="-15" cy="24" rx="17" ry="11"/></g><path d="M-150 74q120 11 287 0" fill="none" stroke="#b9d6c8" stroke-width="2" opacity=".5"/></g></svg>